<svg width="24" height="24" viewBox="0 0 24 24" fill="none" xmlns="http://www.w3.org/2000/svg">
<path fill-rule="evenodd" clip-rule="evenodd" d="M22 16.4009L22 3C22 2.44772 21.5523 2 21 2L3 2C2.44772 2 2 2.44771 2 3L2 16.4009C3.36974 14.9242 5.32694 14 7.5 14L16.5 14C18.6731 14 20.6303 14.9242 22 16.4009ZM23.9939 21.1936C23.9979 21.1296 24 21.065 24 21L24 3C24 1.34315 22.6569 -5.87108e-08 21 -1.31134e-07L3 -9.17938e-07C1.34315 -9.90362e-07 -5.87126e-08 1.34314 -1.31136e-07 3L-9.17939e-07 21C-9.20782e-07 21.065 0.00206664 21.1296 0.00614264 21.1936C0.00205901 21.2952 -2.84266e-06 21.3974 -2.84715e-06 21.5C-2.9075e-06 22.8807 1.11929 24 2.5 24L3 24L21 24L21.5 24C22.8807 24 24 22.8807 24 21.5C24 21.3974 23.9979 21.2952 23.9939 21.1936ZM21.989 21.149C21.808 18.275 19.4197 16 16.5 16L7.5 16C4.58035 16 2.19204 18.275 2.01102 21.149C2.08295 21.6306 2.49834 22 3 22L21 22C21.5017 22 21.917 21.6306 21.989 21.149ZM14 9L14 7C14 6.44772 13.5523 6 13 6L11 6C10.4477 6 10 6.44772 10 7L10 9C10 9.55228 10.4477 10 11 10L13 10C13.5523 10 14 9.55228 14 9ZM16 7C16 5.34315 14.6569 4 13 4L11 4C9.34315 4 8 5.34315 8 7L8 9C8 10.6569 9.34314 12 11 12L13 12C14.6569 12 16 10.6569 16 9L16 7Z" fill="black"/>
</svg>
