<svg width="21" height="21" viewBox="0 0 21 21" fill="none" xmlns="http://www.w3.org/2000/svg">
<path fill-rule="evenodd" clip-rule="evenodd" d="M9.69218 0.030855C9.95886 0.0105601 10.2283 0.000226953 10.5002 0.000226953C10.6227 0.000226953 10.7446 0.00232333 10.8661 0.00648215L10.1626 1.9158C10.1296 1.91708 10.0966 1.91855 10.0636 1.9202C9.51222 3.19297 9.03511 4.63167 8.78242 6.03237C8.48836 7.66244 8.51844 9.12935 8.97253 10.2198C9.39567 11.236 10.2238 12.0236 11.8314 12.3026C13.4052 12.5757 15.728 12.3555 19.057 11.2733C19.0608 11.2311 19.0643 11.1887 19.0674 11.1463L20.9997 10.6193C20.996 10.9569 20.9763 11.2907 20.9414 11.62C20.9434 11.6254 20.9454 11.6309 20.9473 11.6364C21.0556 11.9496 20.9915 12.2807 20.8051 12.5263C19.8611 17.356 15.6063 21.0006 10.5002 21.0006C4.7011 21.0006 0 16.2995 0 10.5004C0 5.20413 3.92125 0.823675 9.01893 0.103897C9.22282 0.000381983 9.46205 -0.0293358 9.69218 0.030855ZM18.5837 13.4166C15.6271 14.2755 13.3026 14.4955 11.5049 14.1836C9.29142 13.7994 7.89852 12.6068 7.21015 10.9537C6.55272 9.37489 6.58079 7.4833 6.90368 5.69344C7.11008 4.54935 7.44531 3.40078 7.84309 2.32809C4.39883 3.44716 1.90907 6.68304 1.90907 10.5004C1.90907 15.2452 5.75545 19.0916 10.5002 19.0916C14.2212 19.0916 17.3897 16.726 18.5837 13.4166Z" fill="black"/>
</svg>
