<svg width="24" height="24" viewBox="0 0 24 24" fill="none" xmlns="http://www.w3.org/2000/svg">
<path d="M23.0285 12C23.565 12 24.0041 12.4357 23.9607 12.9705C23.7959 15.0018 23.1158 16.9635 21.9776 18.6668C20.6591 20.6402 18.7849 22.1783 16.5922 23.0866C14.3995 23.9948 11.9867 24.2324 9.65892 23.7694C7.33114 23.3064 5.19295 22.1635 3.51472 20.4853C1.83649 18.8071 0.693599 16.6689 0.230577 14.3411C-0.232446 12.0133 0.00519403 9.60051 0.913446 7.4078C1.8217 5.21509 3.35977 3.34094 5.33316 2.02236C7.03653 0.884206 8.99821 0.204106 11.0295 0.0393007C11.5643 -0.00408841 12 0.434959 12 0.971508V0.971508C12 1.50806 11.564 1.93815 11.03 1.9899C9.38348 2.14944 7.79636 2.71335 6.41264 3.63792C4.75878 4.743 3.46975 6.31368 2.70856 8.15136C1.94737 9.98903 1.74821 12.0112 2.13626 13.962C2.52431 15.9129 3.48214 17.7049 4.88864 19.1114C6.29513 20.5179 8.08712 21.4757 10.038 21.8637C11.9888 22.2518 14.011 22.0526 15.8486 21.2914C17.6863 20.5303 19.257 19.2412 20.3621 17.5874C21.2867 16.2036 21.8506 14.6165 22.0101 12.97C22.0619 12.436 22.4919 12 23.0285 12V12Z" fill="black"/>
<path d="M17.0067 12C17.5553 12 18.0084 12.4477 17.918 12.9887C17.7785 13.8236 17.4632 14.6234 16.9888 15.3334C16.3295 16.3201 15.3925 17.0892 14.2961 17.5433C13.1997 17.9974 11.9933 18.1162 10.8295 17.8847C9.66557 17.6532 8.59647 17.0818 7.75736 16.2426C6.91824 15.4035 6.3468 14.3344 6.11529 13.1705C5.88378 12.0067 6.0026 10.8003 6.45672 9.7039C6.91085 8.60754 7.67988 7.67047 8.66658 7.01118C9.3766 6.53676 10.1764 6.22151 11.0113 6.08202C11.5523 5.99162 12 6.44469 12 6.99325V6.99325C12 7.54181 11.5487 7.97441 11.0168 8.10878C10.575 8.22041 10.1531 8.40705 9.77022 8.6629C9.1102 9.10391 8.59578 9.73073 8.29201 10.4641C7.98824 11.1975 7.90876 12.0045 8.06362 12.783C8.21848 13.5615 8.60073 14.2767 9.16203 14.838C9.72333 15.3993 10.4385 15.7815 11.217 15.9364C11.9955 16.0912 12.8025 16.0118 13.5359 15.708C14.2693 15.4042 14.8961 14.8898 15.3371 14.2298C15.5929 13.8469 15.7796 13.425 15.8912 12.9832C16.0256 12.4513 16.4582 12 17.0067 12V12Z" fill="black"/>
</svg>
