<svg width="24" height="24" viewBox="0 0 24 24" fill="none" xmlns="http://www.w3.org/2000/svg">
<path d="M23.0285 12C23.565 12 24.0041 12.4357 23.9607 12.9705C23.7959 15.0018 23.1158 16.9635 21.9776 18.6668C20.6591 20.6402 18.7849 22.1783 16.5922 23.0866C14.3995 23.9948 11.9867 24.2324 9.65892 23.7694C7.33114 23.3064 5.19295 22.1635 3.51472 20.4853C1.83649 18.8071 0.693599 16.6689 0.230577 14.3411C-0.232446 12.0133 0.00519403 9.60051 0.913446 7.4078C1.8217 5.21509 3.35977 3.34094 5.33316 2.02236C7.03653 0.884206 8.99821 0.204106 11.0295 0.0393007C11.5643 -0.00408841 12 0.434959 12 0.971508V0.971508C12 1.50806 11.564 1.93815 11.03 1.9899C9.38348 2.14944 7.79636 2.71335 6.41264 3.63792C4.75878 4.743 3.46975 6.31368 2.70856 8.15136C1.94737 9.98903 1.74821 12.0112 2.13626 13.962C2.52431 15.9129 3.48214 17.7049 4.88864 19.1114C6.29513 20.5179 8.08712 21.4757 10.038 21.8637C11.9888 22.2518 14.011 22.0526 15.8486 21.2914C17.6863 20.5303 19.257 19.2412 20.3621 17.5874C21.2867 16.2036 21.8506 14.6165 22.0101 12.97C22.0619 12.436 22.4919 12 23.0285 12V12Z" fill="black"/>
</svg>
