<svg width="290" height="123" viewBox="0 0 290 123" fill="none" xmlns="http://www.w3.org/2000/svg">
<rect width="132" height="123" rx="18" fill="#F7F7F7"/>
<path d="M29.374 17.324V26H27.952V20.396C27.952 20.172 27.964 19.93 27.988 19.67L25.366 24.596C25.242 24.832 25.052 24.95 24.796 24.95H24.568C24.312 24.95 24.122 24.832 23.998 24.596L21.346 19.652C21.358 19.784 21.368 19.914 21.376 20.042C21.384 20.17 21.388 20.288 21.388 20.396V26H19.966V17.324H21.184C21.256 17.324 21.318 17.326 21.37 17.33C21.422 17.334 21.468 17.344 21.508 17.36C21.552 17.376 21.59 17.402 21.622 17.438C21.658 17.474 21.692 17.522 21.724 17.582L24.322 22.4C24.39 22.528 24.452 22.66 24.508 22.796C24.568 22.932 24.626 23.072 24.682 23.216C24.738 23.068 24.796 22.926 24.856 22.79C24.916 22.65 24.98 22.516 25.048 22.388L27.61 17.582C27.642 17.522 27.676 17.474 27.712 17.438C27.748 17.402 27.786 17.376 27.826 17.36C27.87 17.344 27.918 17.334 27.97 17.33C28.022 17.326 28.084 17.324 28.156 17.324H29.374ZM33.6123 19.748C34.0683 19.748 34.4823 19.822 34.8543 19.97C35.2303 20.118 35.5503 20.328 35.8143 20.6C36.0822 20.872 36.2882 21.204 36.4323 21.596C36.5763 21.988 36.6483 22.426 36.6483 22.91C36.6483 23.398 36.5763 23.838 36.4323 24.23C36.2882 24.622 36.0822 24.956 35.8143 25.232C35.5503 25.508 35.2303 25.72 34.8543 25.868C34.4823 26.016 34.0683 26.09 33.6123 26.09C33.1523 26.09 32.7343 26.016 32.3583 25.868C31.9823 25.72 31.6603 25.508 31.3923 25.232C31.1283 24.956 30.9223 24.622 30.7743 24.23C30.6303 23.838 30.5583 23.398 30.5583 22.91C30.5583 22.426 30.6303 21.988 30.7743 21.596C30.9223 21.204 31.1283 20.872 31.3923 20.6C31.6603 20.328 31.9823 20.118 32.3583 19.97C32.7343 19.822 33.1523 19.748 33.6123 19.748ZM33.6123 24.95C34.1243 24.95 34.5023 24.778 34.7463 24.434C34.9943 24.09 35.1183 23.586 35.1183 22.922C35.1183 22.258 34.9943 21.752 34.7463 21.404C34.5023 21.056 34.1243 20.882 33.6123 20.882C33.0923 20.882 32.7063 21.058 32.4543 21.41C32.2063 21.758 32.0823 22.262 32.0823 22.922C32.0823 23.582 32.2063 24.086 32.4543 24.434C32.7063 24.778 33.0923 24.95 33.6123 24.95ZM41.6429 21.416C41.4749 21.212 41.2909 21.068 41.0909 20.984C40.8949 20.9 40.6829 20.858 40.4549 20.858C40.2309 20.858 40.0289 20.9 39.8489 20.984C39.6689 21.068 39.5149 21.196 39.3869 21.368C39.2589 21.536 39.1609 21.752 39.0929 22.016C39.0249 22.276 38.9909 22.584 38.9909 22.94C38.9909 23.3 39.0189 23.606 39.0749 23.858C39.1349 24.106 39.2189 24.31 39.3269 24.47C39.4349 24.626 39.5669 24.74 39.7229 24.812C39.8789 24.88 40.0529 24.914 40.2449 24.914C40.5529 24.914 40.8149 24.85 41.0309 24.722C41.2469 24.594 41.4509 24.412 41.6429 24.176V21.416ZM43.1249 17.084V26H42.2189C42.0229 26 41.8989 25.91 41.8469 25.73L41.7209 25.136C41.4729 25.42 41.1869 25.65 40.8629 25.826C40.5429 26.002 40.1689 26.09 39.7409 26.09C39.4049 26.09 39.0969 26.02 38.8169 25.88C38.5369 25.74 38.2949 25.538 38.0909 25.274C37.8909 25.006 37.7349 24.676 37.6229 24.284C37.5149 23.892 37.4609 23.444 37.4609 22.94C37.4609 22.484 37.5229 22.06 37.6469 21.668C37.7709 21.276 37.9489 20.936 38.1809 20.648C38.4129 20.36 38.6909 20.136 39.0149 19.976C39.3389 19.812 39.7029 19.73 40.1069 19.73C40.4509 19.73 40.7449 19.784 40.9889 19.892C41.2329 20 41.4509 20.146 41.6429 20.33V17.084H43.1249ZM49.8915 19.844V26H48.9855C48.7895 26 48.6655 25.91 48.6135 25.73L48.5115 25.238C48.2595 25.494 47.9815 25.702 47.6775 25.862C47.3735 26.018 47.0155 26.096 46.6035 26.096C46.2675 26.096 45.9695 26.04 45.7095 25.928C45.4535 25.812 45.2375 25.65 45.0615 25.442C44.8855 25.234 44.7515 24.988 44.6595 24.704C44.5715 24.416 44.5275 24.1 44.5275 23.756V19.844H46.0095V23.756C46.0095 24.132 46.0955 24.424 46.2675 24.632C46.4435 24.836 46.7055 24.938 47.0535 24.938C47.3095 24.938 47.5495 24.882 47.7735 24.77C47.9975 24.654 48.2095 24.496 48.4095 24.296V19.844H49.8915ZM52.8609 17.084V26H51.3789V17.084H52.8609ZM58.3035 22.214C58.3035 22.022 58.2755 21.842 58.2195 21.674C58.1675 21.502 58.0875 21.352 57.9795 21.224C57.8715 21.096 57.7335 20.996 57.5655 20.924C57.4015 20.848 57.2095 20.81 56.9895 20.81C56.5615 20.81 56.2235 20.932 55.9755 21.176C55.7315 21.42 55.5755 21.766 55.5075 22.214H58.3035ZM55.4775 23.108C55.5015 23.424 55.5575 23.698 55.6455 23.93C55.7335 24.158 55.8495 24.348 55.9935 24.5C56.1375 24.648 56.3075 24.76 56.5035 24.836C56.7035 24.908 56.9235 24.944 57.1635 24.944C57.4035 24.944 57.6095 24.916 57.7815 24.86C57.9575 24.804 58.1095 24.742 58.2375 24.674C58.3695 24.606 58.4835 24.544 58.5795 24.488C58.6795 24.432 58.7755 24.404 58.8675 24.404C58.9915 24.404 59.0835 24.45 59.1435 24.542L59.5695 25.082C59.4055 25.274 59.2215 25.436 59.0175 25.568C58.8135 25.696 58.5995 25.8 58.3755 25.88C58.1555 25.956 57.9295 26.01 57.6975 26.042C57.4695 26.074 57.2475 26.09 57.0315 26.09C56.6035 26.09 56.2055 26.02 55.8375 25.88C55.4695 25.736 55.1495 25.526 54.8775 25.25C54.6055 24.97 54.3915 24.626 54.2355 24.218C54.0795 23.806 54.0015 23.33 54.0015 22.79C54.0015 22.37 54.0695 21.976 54.2055 21.608C54.3415 21.236 54.5355 20.914 54.7875 20.642C55.0435 20.366 55.3535 20.148 55.7175 19.988C56.0855 19.828 56.4995 19.748 56.9595 19.748C57.3475 19.748 57.7055 19.81 58.0335 19.934C58.3615 20.058 58.6435 20.24 58.8795 20.48C59.1155 20.716 59.2995 21.008 59.4315 21.356C59.5675 21.7 59.6355 22.094 59.6355 22.538C59.6355 22.762 59.6115 22.914 59.5635 22.994C59.5155 23.07 59.4235 23.108 59.2875 23.108H55.4775ZM64.5036 21.044C64.4636 21.108 64.4216 21.154 64.3776 21.182C64.3336 21.206 64.2776 21.218 64.2096 21.218C64.1376 21.218 64.0596 21.198 63.9756 21.158C63.8956 21.118 63.8016 21.074 63.6936 21.026C63.5856 20.974 63.4616 20.928 63.3216 20.888C63.1856 20.848 63.0236 20.828 62.8356 20.828C62.5436 20.828 62.3136 20.89 62.1456 21.014C61.9816 21.138 61.8996 21.3 61.8996 21.5C61.8996 21.632 61.9416 21.744 62.0256 21.836C62.1136 21.924 62.2276 22.002 62.3676 22.07C62.5116 22.138 62.6736 22.2 62.8536 22.256C63.0336 22.308 63.2156 22.366 63.3996 22.43C63.5876 22.494 63.7716 22.568 63.9516 22.652C64.1316 22.732 64.2916 22.836 64.4316 22.964C64.5756 23.088 64.6896 23.238 64.7736 23.414C64.8616 23.59 64.9056 23.802 64.9056 24.05C64.9056 24.346 64.8516 24.62 64.7436 24.872C64.6396 25.12 64.4836 25.336 64.2756 25.52C64.0676 25.7 63.8096 25.842 63.5016 25.946C63.1976 26.046 62.8456 26.096 62.4456 26.096C62.2336 26.096 62.0256 26.076 61.8216 26.036C61.6216 26 61.4276 25.948 61.2396 25.88C61.0556 25.812 60.8836 25.732 60.7236 25.64C60.5676 25.548 60.4296 25.448 60.3096 25.34L60.6516 24.776C60.6956 24.708 60.7476 24.656 60.8076 24.62C60.8676 24.584 60.9436 24.566 61.0356 24.566C61.1276 24.566 61.2136 24.592 61.2936 24.644C61.3776 24.696 61.4736 24.752 61.5816 24.812C61.6896 24.872 61.8156 24.928 61.9596 24.98C62.1076 25.032 62.2936 25.058 62.5176 25.058C62.6936 25.058 62.8436 25.038 62.9676 24.998C63.0956 24.954 63.1996 24.898 63.2796 24.83C63.3636 24.762 63.4236 24.684 63.4596 24.596C63.4996 24.504 63.5196 24.41 63.5196 24.314C63.5196 24.17 63.4756 24.052 63.3876 23.96C63.3036 23.868 63.1896 23.788 63.0456 23.72C62.9056 23.652 62.7436 23.592 62.5596 23.54C62.3796 23.484 62.1936 23.424 62.0016 23.36C61.8136 23.296 61.6276 23.222 61.4436 23.138C61.2636 23.05 61.1016 22.94 60.9576 22.808C60.8176 22.676 60.7036 22.514 60.6156 22.322C60.5316 22.13 60.4896 21.898 60.4896 21.626C60.4896 21.374 60.5396 21.134 60.6396 20.906C60.7396 20.678 60.8856 20.48 61.0776 20.312C61.2736 20.14 61.5156 20.004 61.8036 19.904C62.0956 19.8 62.4316 19.748 62.8116 19.748C63.2356 19.748 63.6216 19.818 63.9696 19.958C64.3176 20.098 64.6076 20.282 64.8396 20.51L64.5036 21.044ZM25.924 37.954C26.012 37.954 26.09 37.988 26.158 38.056L26.794 38.746C26.442 39.182 26.008 39.516 25.492 39.748C24.98 39.98 24.364 40.096 23.644 40.096C23 40.096 22.42 39.986 21.904 39.766C21.392 39.546 20.954 39.24 20.59 38.848C20.226 38.456 19.946 37.988 19.75 37.444C19.558 36.9 19.462 36.306 19.462 35.662C19.462 35.01 19.566 34.414 19.774 33.874C19.982 33.33 20.274 32.862 20.65 32.47C21.03 32.078 21.482 31.774 22.006 31.558C22.53 31.338 23.11 31.228 23.746 31.228C24.378 31.228 24.938 31.332 25.426 31.54C25.918 31.748 26.336 32.02 26.68 32.356L26.14 33.106C26.108 33.154 26.066 33.196 26.014 33.232C25.966 33.268 25.898 33.286 25.81 33.286C25.75 33.286 25.688 33.27 25.624 33.238C25.56 33.202 25.49 33.16 25.414 33.112C25.338 33.06 25.25 33.004 25.15 32.944C25.05 32.884 24.934 32.83 24.802 32.782C24.67 32.73 24.516 32.688 24.34 32.656C24.168 32.62 23.968 32.602 23.74 32.602C23.352 32.602 22.996 32.672 22.672 32.812C22.352 32.948 22.076 33.148 21.844 33.412C21.612 33.672 21.432 33.992 21.304 34.372C21.176 34.748 21.112 35.178 21.112 35.662C21.112 36.15 21.18 36.584 21.316 36.964C21.456 37.344 21.644 37.664 21.88 37.924C22.116 38.184 22.394 38.384 22.714 38.524C23.034 38.66 23.378 38.728 23.746 38.728C23.966 38.728 24.164 38.716 24.34 38.692C24.52 38.668 24.684 38.63 24.832 38.578C24.984 38.526 25.126 38.46 25.258 38.38C25.394 38.296 25.528 38.194 25.66 38.074C25.7 38.038 25.742 38.01 25.786 37.99C25.83 37.966 25.876 37.954 25.924 37.954ZM30.2607 33.748C30.7167 33.748 31.1307 33.822 31.5027 33.97C31.8787 34.118 32.1987 34.328 32.4627 34.6C32.7307 34.872 32.9367 35.204 33.0807 35.596C33.2247 35.988 33.2967 36.426 33.2967 36.91C33.2967 37.398 33.2247 37.838 33.0807 38.23C32.9367 38.622 32.7307 38.956 32.4627 39.232C32.1987 39.508 31.8787 39.72 31.5027 39.868C31.1307 40.016 30.7167 40.09 30.2607 40.09C29.8007 40.09 29.3827 40.016 29.0067 39.868C28.6307 39.72 28.3087 39.508 28.0407 39.232C27.7767 38.956 27.5707 38.622 27.4227 38.23C27.2787 37.838 27.2067 37.398 27.2067 36.91C27.2067 36.426 27.2787 35.988 27.4227 35.596C27.5707 35.204 27.7767 34.872 28.0407 34.6C28.3087 34.328 28.6307 34.118 29.0067 33.97C29.3827 33.822 29.8007 33.748 30.2607 33.748ZM30.2607 38.95C30.7727 38.95 31.1507 38.778 31.3947 38.434C31.6427 38.09 31.7667 37.586 31.7667 36.922C31.7667 36.258 31.6427 35.752 31.3947 35.404C31.1507 35.056 30.7727 34.882 30.2607 34.882C29.7407 34.882 29.3547 35.058 29.1027 35.41C28.8547 35.758 28.7307 36.262 28.7307 36.922C28.7307 37.582 28.8547 38.086 29.1027 38.434C29.3547 38.778 29.7407 38.95 30.2607 38.95ZM34.4273 40V33.844H35.3333C35.5253 33.844 35.6513 33.934 35.7113 34.114L35.8073 34.57C35.9153 34.45 36.0273 34.34 36.1433 34.24C36.2633 34.14 36.3893 34.054 36.5213 33.982C36.6573 33.91 36.8013 33.854 36.9533 33.814C37.1093 33.77 37.2793 33.748 37.4633 33.748C37.8513 33.748 38.1693 33.854 38.4173 34.066C38.6693 34.274 38.8573 34.552 38.9813 34.9C39.0773 34.696 39.1973 34.522 39.3413 34.378C39.4853 34.23 39.6433 34.11 39.8153 34.018C39.9873 33.926 40.1693 33.858 40.3613 33.814C40.5573 33.77 40.7533 33.748 40.9493 33.748C41.2893 33.748 41.5913 33.8 41.8553 33.904C42.1193 34.008 42.3413 34.16 42.5213 34.36C42.7013 34.56 42.8373 34.804 42.9293 35.092C43.0253 35.38 43.0733 35.71 43.0733 36.082V40H41.5913V36.082C41.5913 35.69 41.5053 35.396 41.3333 35.2C41.1613 35 40.9093 34.9 40.5773 34.9C40.4253 34.9 40.2833 34.926 40.1513 34.978C40.0233 35.03 39.9093 35.106 39.8093 35.206C39.7133 35.302 39.6373 35.424 39.5813 35.572C39.5253 35.72 39.4973 35.89 39.4973 36.082V40H38.0093V36.082C38.0093 35.67 37.9253 35.37 37.7573 35.182C37.5933 34.994 37.3513 34.9 37.0313 34.9C36.8153 34.9 36.6133 34.954 36.4253 35.062C36.2413 35.166 36.0693 35.31 35.9093 35.494V40H34.4273ZM45.964 38.404C46.132 38.608 46.314 38.752 46.51 38.836C46.71 38.92 46.926 38.962 47.158 38.962C47.382 38.962 47.584 38.92 47.764 38.836C47.944 38.752 48.096 38.624 48.22 38.452C48.348 38.28 48.446 38.064 48.514 37.804C48.582 37.54 48.616 37.23 48.616 36.874C48.616 36.514 48.586 36.21 48.526 35.962C48.47 35.71 48.388 35.506 48.28 35.35C48.172 35.194 48.04 35.08 47.884 35.008C47.732 34.936 47.558 34.9 47.362 34.9C47.054 34.9 46.792 34.966 46.576 35.098C46.36 35.226 46.156 35.408 45.964 35.644V38.404ZM45.886 34.684C46.138 34.4 46.424 34.17 46.744 33.994C47.064 33.818 47.44 33.73 47.872 33.73C48.208 33.73 48.514 33.8 48.79 33.94C49.07 34.08 49.31 34.284 49.51 34.552C49.714 34.816 49.87 35.144 49.978 35.536C50.09 35.924 50.146 36.37 50.146 36.874C50.146 37.334 50.084 37.76 49.96 38.152C49.836 38.544 49.658 38.884 49.426 39.172C49.198 39.46 48.92 39.686 48.592 39.85C48.268 40.01 47.904 40.09 47.5 40.09C47.156 40.09 46.862 40.038 46.618 39.934C46.374 39.826 46.156 39.678 45.964 39.49V42.01H44.482V33.844H45.388C45.58 33.844 45.706 33.934 45.766 34.114L45.886 34.684ZM52.8023 31.084V40H51.3203V31.084H52.8023ZM58.2449 36.214C58.2449 36.022 58.2169 35.842 58.1609 35.674C58.1089 35.502 58.0289 35.352 57.9209 35.224C57.8129 35.096 57.6749 34.996 57.5069 34.924C57.3429 34.848 57.1509 34.81 56.9309 34.81C56.5029 34.81 56.1649 34.932 55.9169 35.176C55.6729 35.42 55.5169 35.766 55.4489 36.214H58.2449ZM55.4189 37.108C55.4429 37.424 55.4989 37.698 55.5869 37.93C55.6749 38.158 55.7909 38.348 55.9349 38.5C56.0789 38.648 56.2489 38.76 56.4449 38.836C56.6449 38.908 56.8649 38.944 57.1049 38.944C57.3449 38.944 57.5509 38.916 57.7229 38.86C57.8989 38.804 58.0509 38.742 58.1789 38.674C58.3109 38.606 58.4249 38.544 58.5209 38.488C58.6209 38.432 58.7169 38.404 58.8089 38.404C58.9329 38.404 59.0249 38.45 59.0849 38.542L59.5109 39.082C59.3469 39.274 59.1629 39.436 58.9589 39.568C58.7549 39.696 58.5409 39.8 58.3169 39.88C58.0969 39.956 57.8709 40.01 57.6389 40.042C57.4109 40.074 57.1889 40.09 56.9729 40.09C56.5449 40.09 56.1469 40.02 55.7789 39.88C55.4109 39.736 55.0909 39.526 54.8189 39.25C54.5469 38.97 54.3329 38.626 54.1769 38.218C54.0209 37.806 53.9429 37.33 53.9429 36.79C53.9429 36.37 54.0109 35.976 54.1469 35.608C54.2829 35.236 54.4769 34.914 54.7289 34.642C54.9849 34.366 55.2949 34.148 55.6589 33.988C56.0269 33.828 56.4409 33.748 56.9009 33.748C57.2889 33.748 57.6469 33.81 57.9749 33.934C58.3029 34.058 58.5849 34.24 58.8209 34.48C59.0569 34.716 59.2409 35.008 59.3729 35.356C59.5089 35.7 59.5769 36.094 59.5769 36.538C59.5769 36.762 59.5529 36.914 59.5049 36.994C59.4569 37.07 59.3649 37.108 59.2289 37.108H55.4189ZM62.6824 40.096C62.1464 40.096 61.7344 39.946 61.4464 39.646C61.1624 39.342 61.0204 38.924 61.0204 38.392V34.954H60.3904C60.3104 34.954 60.2424 34.928 60.1864 34.876C60.1304 34.824 60.1024 34.746 60.1024 34.642V34.054L61.0924 33.892L61.4044 32.212C61.4244 32.132 61.4624 32.07 61.5184 32.026C61.5744 31.982 61.6464 31.96 61.7344 31.96H62.5024V33.898H64.1464V34.954H62.5024V38.29C62.5024 38.482 62.5484 38.632 62.6404 38.74C62.7364 38.848 62.8664 38.902 63.0304 38.902C63.1224 38.902 63.1984 38.892 63.2584 38.872C63.3224 38.848 63.3764 38.824 63.4204 38.8C63.4684 38.776 63.5104 38.754 63.5464 38.734C63.5824 38.71 63.6184 38.698 63.6544 38.698C63.6984 38.698 63.7344 38.71 63.7624 38.734C63.7904 38.754 63.8204 38.786 63.8524 38.83L64.2964 39.55C64.0804 39.73 63.8324 39.866 63.5524 39.958C63.2724 40.05 62.9824 40.096 62.6824 40.096ZM69.0144 36.214C69.0144 36.022 68.9864 35.842 68.9304 35.674C68.8784 35.502 68.7984 35.352 68.6904 35.224C68.5824 35.096 68.4444 34.996 68.2764 34.924C68.1124 34.848 67.9204 34.81 67.7004 34.81C67.2724 34.81 66.9344 34.932 66.6864 35.176C66.4424 35.42 66.2864 35.766 66.2184 36.214H69.0144ZM66.1884 37.108C66.2124 37.424 66.2684 37.698 66.3564 37.93C66.4444 38.158 66.5604 38.348 66.7044 38.5C66.8484 38.648 67.0184 38.76 67.2144 38.836C67.4144 38.908 67.6344 38.944 67.8744 38.944C68.1144 38.944 68.3204 38.916 68.4924 38.86C68.6684 38.804 68.8204 38.742 68.9484 38.674C69.0804 38.606 69.1944 38.544 69.2904 38.488C69.3904 38.432 69.4864 38.404 69.5784 38.404C69.7024 38.404 69.7944 38.45 69.8544 38.542L70.2804 39.082C70.1164 39.274 69.9324 39.436 69.7284 39.568C69.5244 39.696 69.3104 39.8 69.0864 39.88C68.8664 39.956 68.6404 40.01 68.4084 40.042C68.1804 40.074 67.9584 40.09 67.7424 40.09C67.3144 40.09 66.9164 40.02 66.5484 39.88C66.1804 39.736 65.8604 39.526 65.5884 39.25C65.3164 38.97 65.1024 38.626 64.9464 38.218C64.7904 37.806 64.7124 37.33 64.7124 36.79C64.7124 36.37 64.7804 35.976 64.9164 35.608C65.0524 35.236 65.2464 34.914 65.4984 34.642C65.7544 34.366 66.0644 34.148 66.4284 33.988C66.7964 33.828 67.2104 33.748 67.6704 33.748C68.0584 33.748 68.4164 33.81 68.7444 33.934C69.0724 34.058 69.3544 34.24 69.5904 34.48C69.8264 34.716 70.0104 35.008 70.1424 35.356C70.2784 35.7 70.3464 36.094 70.3464 36.538C70.3464 36.762 70.3224 36.914 70.2744 36.994C70.2264 37.07 70.1344 37.108 69.9984 37.108H66.1884ZM75.3226 35.416C75.1546 35.212 74.9706 35.068 74.7706 34.984C74.5746 34.9 74.3626 34.858 74.1346 34.858C73.9106 34.858 73.7086 34.9 73.5286 34.984C73.3486 35.068 73.1946 35.196 73.0666 35.368C72.9386 35.536 72.8406 35.752 72.7726 36.016C72.7046 36.276 72.6706 36.584 72.6706 36.94C72.6706 37.3 72.6986 37.606 72.7546 37.858C72.8146 38.106 72.8986 38.31 73.0066 38.47C73.1146 38.626 73.2466 38.74 73.4026 38.812C73.5586 38.88 73.7326 38.914 73.9246 38.914C74.2326 38.914 74.4946 38.85 74.7106 38.722C74.9266 38.594 75.1306 38.412 75.3226 38.176V35.416ZM76.8046 31.084V40H75.8986C75.7026 40 75.5786 39.91 75.5266 39.73L75.4006 39.136C75.1526 39.42 74.8666 39.65 74.5426 39.826C74.2226 40.002 73.8486 40.09 73.4206 40.09C73.0846 40.09 72.7766 40.02 72.4966 39.88C72.2166 39.74 71.9746 39.538 71.7706 39.274C71.5706 39.006 71.4146 38.676 71.3026 38.284C71.1946 37.892 71.1406 37.444 71.1406 36.94C71.1406 36.484 71.2026 36.06 71.3266 35.668C71.4506 35.276 71.6286 34.936 71.8606 34.648C72.0926 34.36 72.3706 34.136 72.6946 33.976C73.0186 33.812 73.3826 33.73 73.7866 33.73C74.1306 33.73 74.4246 33.784 74.6686 33.892C74.9126 34 75.1306 34.146 75.3226 34.33V31.084H76.8046Z" fill="black" fill-opacity="0.4"/>
<path d="M35.5091 96.067C35.9661 96.067 36.3259 96.1981 36.5887 96.4603C36.8629 96.7111 37 97.0474 37 97.4692V100H20V98.5978C20 98.3128 20.0571 98.0164 20.1714 97.7086C20.297 97.3894 20.4913 97.1044 20.754 96.8536L28.2772 89.3297C28.9056 88.6913 29.4654 88.0814 29.9567 87.5C30.4593 86.9186 30.8763 86.3429 31.2077 85.7729C31.539 85.2029 31.7903 84.6272 31.9617 84.0458C32.1445 83.453 32.2359 82.8317 32.2359 82.1819C32.2359 81.5891 32.1502 81.0704 31.9788 80.6259C31.8075 80.1699 31.5618 79.788 31.2419 79.4802C30.9335 79.1724 30.5565 78.9444 30.1109 78.7962C29.6767 78.6366 29.1855 78.5568 28.6371 78.5568C28.1344 78.5568 27.666 78.6309 27.2319 78.7791C26.8091 78.9159 26.4321 79.1154 26.1008 79.3776C25.7695 79.6284 25.4896 79.9248 25.2611 80.2668C25.0326 80.6088 24.8612 80.985 24.747 81.3953C24.5528 81.9197 24.3014 82.2674 23.9929 82.4384C23.6845 82.6094 23.2389 82.6493 22.6562 82.5581L20.4284 82.1648C20.5998 80.9793 20.9311 79.9419 21.4224 79.0527C21.9136 78.1521 22.5249 77.4054 23.256 76.8126C23.9987 76.2084 24.8441 75.7581 25.7923 75.4617C26.752 75.1539 27.7802 75 28.877 75C30.0195 75 31.0649 75.171 32.0131 75.513C32.9614 75.8436 33.7725 76.3167 34.4466 76.9323C35.1206 77.5479 35.6462 78.2889 36.0232 79.1553C36.4002 80.0217 36.5887 80.985 36.5887 82.0451C36.5887 82.9571 36.4516 83.8007 36.1774 84.5759C35.9147 85.3511 35.5548 86.0921 35.0978 86.7989C34.6522 87.5057 34.1267 88.1897 33.5212 88.8509C32.9157 89.5121 32.2816 90.1847 31.619 90.8687L26.0323 96.5629C26.5692 96.4033 27.1005 96.2836 27.626 96.2038C28.163 96.1126 28.6714 96.067 29.1512 96.067H35.5091Z" fill="black"/>
<rect x="158" width="132" height="123" rx="18" fill="#F7F7F7"/>
<path d="M180.786 21.686C181.082 21.686 181.34 21.65 181.56 21.578C181.78 21.502 181.962 21.396 182.106 21.26C182.254 21.12 182.364 20.952 182.436 20.756C182.508 20.556 182.544 20.334 182.544 20.09C182.544 19.858 182.508 19.648 182.436 19.46C182.364 19.272 182.256 19.112 182.112 18.98C181.968 18.848 181.786 18.748 181.566 18.68C181.346 18.608 181.086 18.572 180.786 18.572H179.58V21.686H180.786ZM180.786 17.324C181.366 17.324 181.868 17.392 182.292 17.528C182.716 17.664 183.066 17.854 183.342 18.098C183.618 18.342 183.822 18.634 183.954 18.974C184.09 19.314 184.158 19.686 184.158 20.09C184.158 20.51 184.088 20.896 183.948 21.248C183.808 21.596 183.598 21.896 183.318 22.148C183.038 22.4 182.686 22.596 182.262 22.736C181.842 22.876 181.35 22.946 180.786 22.946H179.58V26H177.966V17.324H180.786ZM186.466 20.912C186.658 20.544 186.886 20.256 187.15 20.048C187.414 19.836 187.726 19.73 188.086 19.73C188.37 19.73 188.598 19.792 188.77 19.916L188.674 21.026C188.654 21.098 188.624 21.15 188.584 21.182C188.548 21.21 188.498 21.224 188.434 21.224C188.374 21.224 188.284 21.214 188.164 21.194C188.048 21.174 187.934 21.164 187.822 21.164C187.658 21.164 187.512 21.188 187.384 21.236C187.256 21.284 187.14 21.354 187.036 21.446C186.936 21.534 186.846 21.642 186.766 21.77C186.69 21.898 186.618 22.044 186.55 22.208V26H185.068V19.844H185.938C186.09 19.844 186.196 19.872 186.256 19.928C186.316 19.98 186.356 20.076 186.376 20.216L186.466 20.912ZM192.093 19.748C192.549 19.748 192.963 19.822 193.335 19.97C193.711 20.118 194.031 20.328 194.295 20.6C194.563 20.872 194.769 21.204 194.913 21.596C195.057 21.988 195.129 22.426 195.129 22.91C195.129 23.398 195.057 23.838 194.913 24.23C194.769 24.622 194.563 24.956 194.295 25.232C194.031 25.508 193.711 25.72 193.335 25.868C192.963 26.016 192.549 26.09 192.093 26.09C191.633 26.09 191.215 26.016 190.839 25.868C190.463 25.72 190.141 25.508 189.873 25.232C189.609 24.956 189.403 24.622 189.255 24.23C189.111 23.838 189.039 23.398 189.039 22.91C189.039 22.426 189.111 21.988 189.255 21.596C189.403 21.204 189.609 20.872 189.873 20.6C190.141 20.328 190.463 20.118 190.839 19.97C191.215 19.822 191.633 19.748 192.093 19.748ZM192.093 24.95C192.605 24.95 192.983 24.778 193.227 24.434C193.475 24.09 193.599 23.586 193.599 22.922C193.599 22.258 193.475 21.752 193.227 21.404C192.983 21.056 192.605 20.882 192.093 20.882C191.573 20.882 191.187 21.058 190.935 21.41C190.687 21.758 190.563 22.262 190.563 22.922C190.563 23.582 190.687 24.086 190.935 24.434C191.187 24.778 191.573 24.95 192.093 24.95ZM197.795 19.844V26.21C197.795 26.478 197.759 26.73 197.687 26.966C197.619 27.202 197.507 27.408 197.351 27.584C197.199 27.764 196.997 27.904 196.745 28.004C196.497 28.108 196.193 28.16 195.833 28.16C195.693 28.16 195.563 28.15 195.443 28.13C195.323 28.114 195.199 28.086 195.071 28.046L195.125 27.248C195.137 27.168 195.169 27.116 195.221 27.092C195.273 27.072 195.373 27.062 195.521 27.062C195.669 27.062 195.793 27.046 195.893 27.014C195.997 26.986 196.079 26.938 196.139 26.87C196.199 26.806 196.241 26.72 196.265 26.612C196.293 26.504 196.307 26.37 196.307 26.21V19.844H197.795ZM197.999 18.05C197.999 18.178 197.973 18.298 197.921 18.41C197.869 18.522 197.799 18.62 197.711 18.704C197.627 18.788 197.525 18.856 197.405 18.908C197.289 18.956 197.165 18.98 197.033 18.98C196.905 18.98 196.785 18.956 196.673 18.908C196.561 18.856 196.463 18.788 196.379 18.704C196.295 18.62 196.227 18.522 196.175 18.41C196.127 18.298 196.103 18.178 196.103 18.05C196.103 17.918 196.127 17.794 196.175 17.678C196.227 17.562 196.295 17.462 196.379 17.378C196.463 17.294 196.561 17.228 196.673 17.18C196.785 17.128 196.905 17.102 197.033 17.102C197.165 17.102 197.289 17.128 197.405 17.18C197.525 17.228 197.627 17.294 197.711 17.378C197.799 17.462 197.869 17.562 197.921 17.678C197.973 17.794 197.999 17.918 197.999 18.05ZM203.272 22.214C203.272 22.022 203.244 21.842 203.188 21.674C203.136 21.502 203.056 21.352 202.948 21.224C202.84 21.096 202.702 20.996 202.534 20.924C202.37 20.848 202.178 20.81 201.958 20.81C201.53 20.81 201.192 20.932 200.944 21.176C200.7 21.42 200.544 21.766 200.476 22.214H203.272ZM200.446 23.108C200.47 23.424 200.526 23.698 200.614 23.93C200.702 24.158 200.818 24.348 200.962 24.5C201.106 24.648 201.276 24.76 201.472 24.836C201.672 24.908 201.892 24.944 202.132 24.944C202.372 24.944 202.578 24.916 202.75 24.86C202.926 24.804 203.078 24.742 203.206 24.674C203.338 24.606 203.452 24.544 203.548 24.488C203.648 24.432 203.744 24.404 203.836 24.404C203.96 24.404 204.052 24.45 204.112 24.542L204.538 25.082C204.374 25.274 204.19 25.436 203.986 25.568C203.782 25.696 203.568 25.8 203.344 25.88C203.124 25.956 202.898 26.01 202.666 26.042C202.438 26.074 202.216 26.09 202 26.09C201.572 26.09 201.174 26.02 200.806 25.88C200.438 25.736 200.118 25.526 199.846 25.25C199.574 24.97 199.36 24.626 199.204 24.218C199.048 23.806 198.97 23.33 198.97 22.79C198.97 22.37 199.038 21.976 199.174 21.608C199.31 21.236 199.504 20.914 199.756 20.642C200.012 20.366 200.322 20.148 200.686 19.988C201.054 19.828 201.468 19.748 201.928 19.748C202.316 19.748 202.674 19.81 203.002 19.934C203.33 20.058 203.612 20.24 203.848 20.48C204.084 20.716 204.268 21.008 204.4 21.356C204.536 21.7 204.604 22.094 204.604 22.538C204.604 22.762 204.58 22.914 204.532 22.994C204.484 23.07 204.392 23.108 204.256 23.108H200.446ZM210.126 21.146C210.082 21.202 210.038 21.246 209.994 21.278C209.954 21.31 209.894 21.326 209.814 21.326C209.738 21.326 209.664 21.304 209.592 21.26C209.52 21.212 209.434 21.16 209.334 21.104C209.234 21.044 209.114 20.992 208.974 20.948C208.838 20.9 208.668 20.876 208.464 20.876C208.204 20.876 207.976 20.924 207.78 21.02C207.584 21.112 207.42 21.246 207.288 21.422C207.16 21.598 207.064 21.812 207 22.064C206.936 22.312 206.904 22.594 206.904 22.91C206.904 23.238 206.938 23.53 207.006 23.786C207.078 24.042 207.18 24.258 207.312 24.434C207.444 24.606 207.604 24.738 207.792 24.83C207.98 24.918 208.192 24.962 208.428 24.962C208.664 24.962 208.854 24.934 208.998 24.878C209.146 24.818 209.27 24.754 209.37 24.686C209.47 24.614 209.556 24.55 209.628 24.494C209.704 24.434 209.788 24.404 209.88 24.404C210 24.404 210.09 24.45 210.15 24.542L210.576 25.082C210.412 25.274 210.234 25.436 210.042 25.568C209.85 25.696 209.65 25.8 209.442 25.88C209.238 25.956 209.026 26.01 208.806 26.042C208.59 26.074 208.374 26.09 208.158 26.09C207.778 26.09 207.42 26.02 207.084 25.88C206.748 25.736 206.454 25.528 206.202 25.256C205.95 24.984 205.75 24.652 205.602 24.26C205.458 23.864 205.386 23.414 205.386 22.91C205.386 22.458 205.45 22.04 205.578 21.656C205.71 21.268 205.902 20.934 206.154 20.654C206.406 20.37 206.718 20.148 207.09 19.988C207.462 19.828 207.89 19.748 208.374 19.748C208.834 19.748 209.236 19.822 209.58 19.97C209.928 20.118 210.24 20.33 210.516 20.606L210.126 21.146ZM213.557 26.096C213.021 26.096 212.609 25.946 212.321 25.646C212.037 25.342 211.895 24.924 211.895 24.392V20.954H211.265C211.185 20.954 211.117 20.928 211.061 20.876C211.005 20.824 210.977 20.746 210.977 20.642V20.054L211.967 19.892L212.279 18.212C212.299 18.132 212.337 18.07 212.393 18.026C212.449 17.982 212.521 17.96 212.609 17.96H213.377V19.898H215.021V20.954H213.377V24.29C213.377 24.482 213.423 24.632 213.515 24.74C213.611 24.848 213.741 24.902 213.905 24.902C213.997 24.902 214.073 24.892 214.133 24.872C214.197 24.848 214.251 24.824 214.295 24.8C214.343 24.776 214.385 24.754 214.421 24.734C214.457 24.71 214.493 24.698 214.529 24.698C214.573 24.698 214.609 24.71 214.637 24.734C214.665 24.754 214.695 24.786 214.727 24.83L215.171 25.55C214.955 25.73 214.707 25.866 214.427 25.958C214.147 26.05 213.857 26.096 213.557 26.096ZM219.726 21.044C219.686 21.108 219.644 21.154 219.6 21.182C219.556 21.206 219.5 21.218 219.432 21.218C219.36 21.218 219.282 21.198 219.198 21.158C219.118 21.118 219.024 21.074 218.916 21.026C218.808 20.974 218.684 20.928 218.544 20.888C218.408 20.848 218.246 20.828 218.058 20.828C217.766 20.828 217.536 20.89 217.368 21.014C217.204 21.138 217.122 21.3 217.122 21.5C217.122 21.632 217.164 21.744 217.248 21.836C217.336 21.924 217.45 22.002 217.59 22.07C217.734 22.138 217.896 22.2 218.076 22.256C218.256 22.308 218.438 22.366 218.622 22.43C218.81 22.494 218.994 22.568 219.174 22.652C219.354 22.732 219.514 22.836 219.654 22.964C219.798 23.088 219.912 23.238 219.996 23.414C220.084 23.59 220.128 23.802 220.128 24.05C220.128 24.346 220.074 24.62 219.966 24.872C219.862 25.12 219.706 25.336 219.498 25.52C219.29 25.7 219.032 25.842 218.724 25.946C218.42 26.046 218.068 26.096 217.668 26.096C217.456 26.096 217.248 26.076 217.044 26.036C216.844 26 216.65 25.948 216.462 25.88C216.278 25.812 216.106 25.732 215.946 25.64C215.79 25.548 215.652 25.448 215.532 25.34L215.874 24.776C215.918 24.708 215.97 24.656 216.03 24.62C216.09 24.584 216.166 24.566 216.258 24.566C216.35 24.566 216.436 24.592 216.516 24.644C216.6 24.696 216.696 24.752 216.804 24.812C216.912 24.872 217.038 24.928 217.182 24.98C217.33 25.032 217.516 25.058 217.74 25.058C217.916 25.058 218.066 25.038 218.19 24.998C218.318 24.954 218.422 24.898 218.502 24.83C218.586 24.762 218.646 24.684 218.682 24.596C218.722 24.504 218.742 24.41 218.742 24.314C218.742 24.17 218.698 24.052 218.61 23.96C218.526 23.868 218.412 23.788 218.268 23.72C218.128 23.652 217.966 23.592 217.782 23.54C217.602 23.484 217.416 23.424 217.224 23.36C217.036 23.296 216.85 23.222 216.666 23.138C216.486 23.05 216.324 22.94 216.18 22.808C216.04 22.676 215.926 22.514 215.838 22.322C215.754 22.13 215.712 21.898 215.712 21.626C215.712 21.374 215.762 21.134 215.862 20.906C215.962 20.678 216.108 20.48 216.3 20.312C216.496 20.14 216.738 20.004 217.026 19.904C217.318 19.8 217.654 19.748 218.034 19.748C218.458 19.748 218.844 19.818 219.192 19.958C219.54 20.098 219.83 20.282 220.062 20.51L219.726 21.044ZM183.924 37.954C184.012 37.954 184.09 37.988 184.158 38.056L184.794 38.746C184.442 39.182 184.008 39.516 183.492 39.748C182.98 39.98 182.364 40.096 181.644 40.096C181 40.096 180.42 39.986 179.904 39.766C179.392 39.546 178.954 39.24 178.59 38.848C178.226 38.456 177.946 37.988 177.75 37.444C177.558 36.9 177.462 36.306 177.462 35.662C177.462 35.01 177.566 34.414 177.774 33.874C177.982 33.33 178.274 32.862 178.65 32.47C179.03 32.078 179.482 31.774 180.006 31.558C180.53 31.338 181.11 31.228 181.746 31.228C182.378 31.228 182.938 31.332 183.426 31.54C183.918 31.748 184.336 32.02 184.68 32.356L184.14 33.106C184.108 33.154 184.066 33.196 184.014 33.232C183.966 33.268 183.898 33.286 183.81 33.286C183.75 33.286 183.688 33.27 183.624 33.238C183.56 33.202 183.49 33.16 183.414 33.112C183.338 33.06 183.25 33.004 183.15 32.944C183.05 32.884 182.934 32.83 182.802 32.782C182.67 32.73 182.516 32.688 182.34 32.656C182.168 32.62 181.968 32.602 181.74 32.602C181.352 32.602 180.996 32.672 180.672 32.812C180.352 32.948 180.076 33.148 179.844 33.412C179.612 33.672 179.432 33.992 179.304 34.372C179.176 34.748 179.112 35.178 179.112 35.662C179.112 36.15 179.18 36.584 179.316 36.964C179.456 37.344 179.644 37.664 179.88 37.924C180.116 38.184 180.394 38.384 180.714 38.524C181.034 38.66 181.378 38.728 181.746 38.728C181.966 38.728 182.164 38.716 182.34 38.692C182.52 38.668 182.684 38.63 182.832 38.578C182.984 38.526 183.126 38.46 183.258 38.38C183.394 38.296 183.528 38.194 183.66 38.074C183.7 38.038 183.742 38.01 183.786 37.99C183.83 37.966 183.876 37.954 183.924 37.954ZM188.261 33.748C188.717 33.748 189.131 33.822 189.503 33.97C189.879 34.118 190.199 34.328 190.463 34.6C190.731 34.872 190.937 35.204 191.081 35.596C191.225 35.988 191.297 36.426 191.297 36.91C191.297 37.398 191.225 37.838 191.081 38.23C190.937 38.622 190.731 38.956 190.463 39.232C190.199 39.508 189.879 39.72 189.503 39.868C189.131 40.016 188.717 40.09 188.261 40.09C187.801 40.09 187.383 40.016 187.007 39.868C186.631 39.72 186.309 39.508 186.041 39.232C185.777 38.956 185.571 38.622 185.423 38.23C185.279 37.838 185.207 37.398 185.207 36.91C185.207 36.426 185.279 35.988 185.423 35.596C185.571 35.204 185.777 34.872 186.041 34.6C186.309 34.328 186.631 34.118 187.007 33.97C187.383 33.822 187.801 33.748 188.261 33.748ZM188.261 38.95C188.773 38.95 189.151 38.778 189.395 38.434C189.643 38.09 189.767 37.586 189.767 36.922C189.767 36.258 189.643 35.752 189.395 35.404C189.151 35.056 188.773 34.882 188.261 34.882C187.741 34.882 187.355 35.058 187.103 35.41C186.855 35.758 186.731 36.262 186.731 36.922C186.731 37.582 186.855 38.086 187.103 38.434C187.355 38.778 187.741 38.95 188.261 38.95ZM192.427 40V33.844H193.333C193.525 33.844 193.651 33.934 193.711 34.114L193.807 34.57C193.915 34.45 194.027 34.34 194.143 34.24C194.263 34.14 194.389 34.054 194.521 33.982C194.657 33.91 194.801 33.854 194.953 33.814C195.109 33.77 195.279 33.748 195.463 33.748C195.851 33.748 196.169 33.854 196.417 34.066C196.669 34.274 196.857 34.552 196.981 34.9C197.077 34.696 197.197 34.522 197.341 34.378C197.485 34.23 197.643 34.11 197.815 34.018C197.987 33.926 198.169 33.858 198.361 33.814C198.557 33.77 198.753 33.748 198.949 33.748C199.289 33.748 199.591 33.8 199.855 33.904C200.119 34.008 200.341 34.16 200.521 34.36C200.701 34.56 200.837 34.804 200.929 35.092C201.025 35.38 201.073 35.71 201.073 36.082V40H199.591V36.082C199.591 35.69 199.505 35.396 199.333 35.2C199.161 35 198.909 34.9 198.577 34.9C198.425 34.9 198.283 34.926 198.151 34.978C198.023 35.03 197.909 35.106 197.809 35.206C197.713 35.302 197.637 35.424 197.581 35.572C197.525 35.72 197.497 35.89 197.497 36.082V40H196.009V36.082C196.009 35.67 195.925 35.37 195.757 35.182C195.593 34.994 195.351 34.9 195.031 34.9C194.815 34.9 194.613 34.954 194.425 35.062C194.241 35.166 194.069 35.31 193.909 35.494V40H192.427ZM203.964 38.404C204.132 38.608 204.314 38.752 204.51 38.836C204.71 38.92 204.926 38.962 205.158 38.962C205.382 38.962 205.584 38.92 205.764 38.836C205.944 38.752 206.096 38.624 206.22 38.452C206.348 38.28 206.446 38.064 206.514 37.804C206.582 37.54 206.616 37.23 206.616 36.874C206.616 36.514 206.586 36.21 206.526 35.962C206.47 35.71 206.388 35.506 206.28 35.35C206.172 35.194 206.04 35.08 205.884 35.008C205.732 34.936 205.558 34.9 205.362 34.9C205.054 34.9 204.792 34.966 204.576 35.098C204.36 35.226 204.156 35.408 203.964 35.644V38.404ZM203.886 34.684C204.138 34.4 204.424 34.17 204.744 33.994C205.064 33.818 205.44 33.73 205.872 33.73C206.208 33.73 206.514 33.8 206.79 33.94C207.07 34.08 207.31 34.284 207.51 34.552C207.714 34.816 207.87 35.144 207.978 35.536C208.09 35.924 208.146 36.37 208.146 36.874C208.146 37.334 208.084 37.76 207.96 38.152C207.836 38.544 207.658 38.884 207.426 39.172C207.198 39.46 206.92 39.686 206.592 39.85C206.268 40.01 205.904 40.09 205.5 40.09C205.156 40.09 204.862 40.038 204.618 39.934C204.374 39.826 204.156 39.678 203.964 39.49V42.01H202.482V33.844H203.388C203.58 33.844 203.706 33.934 203.766 34.114L203.886 34.684ZM210.802 31.084V40H209.32V31.084H210.802ZM216.245 36.214C216.245 36.022 216.217 35.842 216.161 35.674C216.109 35.502 216.029 35.352 215.921 35.224C215.813 35.096 215.675 34.996 215.507 34.924C215.343 34.848 215.151 34.81 214.931 34.81C214.503 34.81 214.165 34.932 213.917 35.176C213.673 35.42 213.517 35.766 213.449 36.214H216.245ZM213.419 37.108C213.443 37.424 213.499 37.698 213.587 37.93C213.675 38.158 213.791 38.348 213.935 38.5C214.079 38.648 214.249 38.76 214.445 38.836C214.645 38.908 214.865 38.944 215.105 38.944C215.345 38.944 215.551 38.916 215.723 38.86C215.899 38.804 216.051 38.742 216.179 38.674C216.311 38.606 216.425 38.544 216.521 38.488C216.621 38.432 216.717 38.404 216.809 38.404C216.933 38.404 217.025 38.45 217.085 38.542L217.511 39.082C217.347 39.274 217.163 39.436 216.959 39.568C216.755 39.696 216.541 39.8 216.317 39.88C216.097 39.956 215.871 40.01 215.639 40.042C215.411 40.074 215.189 40.09 214.973 40.09C214.545 40.09 214.147 40.02 213.779 39.88C213.411 39.736 213.091 39.526 212.819 39.25C212.547 38.97 212.333 38.626 212.177 38.218C212.021 37.806 211.943 37.33 211.943 36.79C211.943 36.37 212.011 35.976 212.147 35.608C212.283 35.236 212.477 34.914 212.729 34.642C212.985 34.366 213.295 34.148 213.659 33.988C214.027 33.828 214.441 33.748 214.901 33.748C215.289 33.748 215.647 33.81 215.975 33.934C216.303 34.058 216.585 34.24 216.821 34.48C217.057 34.716 217.241 35.008 217.373 35.356C217.509 35.7 217.577 36.094 217.577 36.538C217.577 36.762 217.553 36.914 217.505 36.994C217.457 37.07 217.365 37.108 217.229 37.108H213.419ZM220.682 40.096C220.146 40.096 219.734 39.946 219.446 39.646C219.162 39.342 219.02 38.924 219.02 38.392V34.954H218.39C218.31 34.954 218.242 34.928 218.186 34.876C218.13 34.824 218.102 34.746 218.102 34.642V34.054L219.092 33.892L219.404 32.212C219.424 32.132 219.462 32.07 219.518 32.026C219.574 31.982 219.646 31.96 219.734 31.96H220.502V33.898H222.146V34.954H220.502V38.29C220.502 38.482 220.548 38.632 220.64 38.74C220.736 38.848 220.866 38.902 221.03 38.902C221.122 38.902 221.198 38.892 221.258 38.872C221.322 38.848 221.376 38.824 221.42 38.8C221.468 38.776 221.51 38.754 221.546 38.734C221.582 38.71 221.618 38.698 221.654 38.698C221.698 38.698 221.734 38.71 221.762 38.734C221.79 38.754 221.82 38.786 221.852 38.83L222.296 39.55C222.08 39.73 221.832 39.866 221.552 39.958C221.272 40.05 220.982 40.096 220.682 40.096ZM227.014 36.214C227.014 36.022 226.986 35.842 226.93 35.674C226.878 35.502 226.798 35.352 226.69 35.224C226.582 35.096 226.444 34.996 226.276 34.924C226.112 34.848 225.92 34.81 225.7 34.81C225.272 34.81 224.934 34.932 224.686 35.176C224.442 35.42 224.286 35.766 224.218 36.214H227.014ZM224.188 37.108C224.212 37.424 224.268 37.698 224.356 37.93C224.444 38.158 224.56 38.348 224.704 38.5C224.848 38.648 225.018 38.76 225.214 38.836C225.414 38.908 225.634 38.944 225.874 38.944C226.114 38.944 226.32 38.916 226.492 38.86C226.668 38.804 226.82 38.742 226.948 38.674C227.08 38.606 227.194 38.544 227.29 38.488C227.39 38.432 227.486 38.404 227.578 38.404C227.702 38.404 227.794 38.45 227.854 38.542L228.28 39.082C228.116 39.274 227.932 39.436 227.728 39.568C227.524 39.696 227.31 39.8 227.086 39.88C226.866 39.956 226.64 40.01 226.408 40.042C226.18 40.074 225.958 40.09 225.742 40.09C225.314 40.09 224.916 40.02 224.548 39.88C224.18 39.736 223.86 39.526 223.588 39.25C223.316 38.97 223.102 38.626 222.946 38.218C222.79 37.806 222.712 37.33 222.712 36.79C222.712 36.37 222.78 35.976 222.916 35.608C223.052 35.236 223.246 34.914 223.498 34.642C223.754 34.366 224.064 34.148 224.428 33.988C224.796 33.828 225.21 33.748 225.67 33.748C226.058 33.748 226.416 33.81 226.744 33.934C227.072 34.058 227.354 34.24 227.59 34.48C227.826 34.716 228.01 35.008 228.142 35.356C228.278 35.7 228.346 36.094 228.346 36.538C228.346 36.762 228.322 36.914 228.274 36.994C228.226 37.07 228.134 37.108 227.998 37.108H224.188ZM233.323 35.416C233.155 35.212 232.971 35.068 232.771 34.984C232.575 34.9 232.363 34.858 232.135 34.858C231.911 34.858 231.709 34.9 231.529 34.984C231.349 35.068 231.195 35.196 231.067 35.368C230.939 35.536 230.841 35.752 230.773 36.016C230.705 36.276 230.671 36.584 230.671 36.94C230.671 37.3 230.699 37.606 230.755 37.858C230.815 38.106 230.899 38.31 231.007 38.47C231.115 38.626 231.247 38.74 231.403 38.812C231.559 38.88 231.733 38.914 231.925 38.914C232.233 38.914 232.495 38.85 232.711 38.722C232.927 38.594 233.131 38.412 233.323 38.176V35.416ZM234.805 31.084V40H233.899C233.703 40 233.579 39.91 233.527 39.73L233.401 39.136C233.153 39.42 232.867 39.65 232.543 39.826C232.223 40.002 231.849 40.09 231.421 40.09C231.085 40.09 230.777 40.02 230.497 39.88C230.217 39.74 229.975 39.538 229.771 39.274C229.571 39.006 229.415 38.676 229.303 38.284C229.195 37.892 229.141 37.444 229.141 36.94C229.141 36.484 229.203 36.06 229.327 35.668C229.451 35.276 229.629 34.936 229.861 34.648C230.093 34.36 230.371 34.136 230.695 33.976C231.019 33.812 231.383 33.73 231.787 33.73C232.131 33.73 232.425 33.784 232.669 33.892C232.913 34 233.131 34.146 233.323 34.33V31.084H234.805Z" fill="black" fill-opacity="0.4"/>
<path d="M187 96.7355C187.648 96.7355 188.216 96.6396 188.705 96.4479C189.194 96.2449 189.603 95.9687 189.932 95.6191C190.272 95.2695 190.527 94.8523 190.697 94.3674C190.867 93.8825 190.952 93.3581 190.952 92.7943C190.952 91.4524 190.602 90.4375 189.9 89.7497C189.199 89.0618 188.232 88.7179 187 88.7179C185.768 88.7179 184.801 89.0618 184.1 89.7497C183.398 90.4375 183.048 91.4524 183.048 92.7943C183.048 93.3581 183.133 93.8825 183.303 94.3674C183.473 94.8523 183.722 95.2695 184.052 95.6191C184.392 95.9687 184.806 96.2449 185.295 96.4479C185.784 96.6396 186.352 96.7355 187 96.7355ZM187 78.1461C186.416 78.1461 185.911 78.242 185.486 78.4337C185.061 78.6254 184.705 78.8848 184.418 79.2118C184.142 79.5275 183.935 79.894 183.797 80.3112C183.669 80.7285 183.606 81.1682 183.606 81.6306C183.606 82.1155 183.659 82.5891 183.765 83.0514C183.882 83.5025 184.073 83.9084 184.339 84.2693C184.604 84.6189 184.955 84.9008 185.39 85.115C185.826 85.3293 186.363 85.4364 187 85.4364C187.637 85.4364 188.174 85.3293 188.61 85.115C189.045 84.9008 189.396 84.6189 189.661 84.2693C189.927 83.9084 190.113 83.5025 190.219 83.0514C190.336 82.5891 190.394 82.1155 190.394 81.6306C190.394 81.1682 190.325 80.7285 190.187 80.3112C190.049 79.894 189.842 79.5275 189.566 79.2118C189.29 78.8848 188.939 78.6254 188.514 78.4337C188.089 78.242 187.584 78.1461 187 78.1461ZM190.888 86.9756C192.291 87.4605 193.327 88.2048 193.996 89.2084C194.665 90.2007 195 91.4186 195 92.862C195 93.9445 194.803 94.9256 194.41 95.8051C194.028 96.6847 193.486 97.4346 192.785 98.0548C192.084 98.675 191.239 99.1543 190.251 99.4926C189.274 99.8309 188.19 100 187 100C185.81 100 184.721 99.8309 183.733 99.4926C182.756 99.1543 181.916 98.675 181.215 98.0548C180.514 97.4346 179.967 96.6847 179.574 95.8051C179.191 94.9256 179 93.9445 179 92.862C179 91.4186 179.335 90.2007 180.004 89.2084C180.673 88.2048 181.709 87.4605 183.112 86.9756C181.996 86.4795 181.157 85.7747 180.594 84.8613C180.041 83.9479 179.765 82.8484 179.765 81.5629C179.765 80.6382 179.94 79.7756 180.291 78.975C180.652 78.1743 181.151 77.4808 181.789 76.8945C182.426 76.2968 183.186 75.8345 184.068 75.5074C184.96 75.1691 185.938 75 187 75C188.062 75 189.035 75.1691 189.916 75.5074C190.809 75.8345 191.574 76.2968 192.211 76.8945C192.849 77.4808 193.343 78.1743 193.693 78.975C194.054 79.7756 194.235 80.6382 194.235 81.5629C194.235 82.8484 193.954 83.9479 193.39 84.8613C192.838 85.7747 192.004 86.4795 190.888 86.9756Z" fill="black"/>
</svg>
