<svg width="93" height="26" viewBox="0 0 93 26" fill="none" xmlns="http://www.w3.org/2000/svg">
<path d="M4.51466 11.5864C2.02128 7.49037 3.40958 2.3029 7.61551 -0.000189826V-0.000189826L11.8945 7.02906C14.3879 11.1251 12.9996 16.3125 8.79363 18.6156V18.6156L4.51466 11.5864Z" fill="#38814D"/>
<path d="M21.0052 21.6257C25.1013 19.3827 26.4534 14.3307 24.0251 10.3416V10.3416L16.2108 14.6206C12.1146 16.8635 10.7626 21.9156 13.1909 25.9047V25.9047L21.0052 21.6257Z" fill="#38814D"/>
<path d="M45.0597 20C44.1298 20 43.2877 19.8659 42.5335 19.5976C41.7896 19.319 41.1542 18.927 40.6273 18.4214C40.1107 17.9056 39.7077 17.2865 39.4184 16.5643C39.1395 15.8317 39 15.0115 39 14.1036C39 13.1647 39.1498 12.3083 39.4494 11.5345C39.7594 10.7504 40.1882 10.0798 40.7358 9.52262C41.2834 8.96548 41.9394 8.5373 42.704 8.23809C43.4686 7.92857 44.3158 7.77381 45.2456 7.77381C45.8862 7.77381 46.4958 7.86151 47.0744 8.03691C47.653 8.2123 48.2781 8.49603 48.9496 8.8881L49.2441 7.92857H49.802V11.844H49.0271C48.8205 10.8742 48.402 10.121 47.7718 9.58452C47.1519 9.04802 46.3718 8.77976 45.4316 8.77976C44.2434 8.77976 43.3187 9.23889 42.6575 10.1571C42.0066 11.0651 41.6811 12.3393 41.6811 13.9798C41.6811 15.5893 42.0014 16.8222 42.642 17.6786C43.2826 18.5349 44.2124 18.9631 45.4316 18.9631C46.3098 18.9631 46.9917 18.7413 47.4773 18.2976C47.9733 17.8437 48.2212 17.2194 48.2212 16.425C48.2212 15.9504 48.0972 15.6048 47.8493 15.3881C47.6013 15.1611 47.1829 15.0218 46.594 14.9702V14.3512H51.6153V14.9702C51.109 14.9702 50.7577 15.0837 50.5614 15.3107C50.3651 15.5274 50.2669 15.9246 50.2669 16.5024V18.5607C50.0396 18.5607 49.8485 18.571 49.6935 18.5917C49.5385 18.602 49.3836 18.6329 49.2286 18.6845C49.0839 18.7258 48.9186 18.798 48.7327 18.9012C48.5467 19.0044 48.3142 19.1385 48.0353 19.3036C47.2397 19.7679 46.2478 20 45.0597 20Z" fill="black"/>
<path d="M60.2162 18.406C59.276 19.4687 58.1033 20 56.6982 20C56.0576 20 55.4739 19.902 54.9469 19.706C54.4303 19.4996 53.9861 19.2159 53.6141 18.8548C53.2422 18.4833 52.9529 18.0448 52.7462 17.5393C52.5396 17.0337 52.4363 16.4714 52.4363 15.8524C52.4363 15.2127 52.5448 14.6298 52.7617 14.1036C52.9787 13.5671 53.2835 13.1079 53.6761 12.7262C54.0791 12.3341 54.5492 12.0298 55.0864 11.8131C55.634 11.5964 56.2333 11.4881 56.8842 11.4881C57.9794 11.4881 58.8317 11.7821 59.4413 12.3702C60.0509 12.9583 60.3557 13.7837 60.3557 14.8464C60.3557 15.0115 60.3299 15.1147 60.2782 15.156C60.2265 15.1869 60.0819 15.2024 59.8443 15.2024H54.854C54.8126 15.2952 54.792 15.4655 54.792 15.7131C54.792 16.7242 55.0089 17.5238 55.4429 18.1119C55.8871 18.7 56.4864 18.994 57.2406 18.994C57.6746 18.994 58.1033 18.896 58.5269 18.7C58.9609 18.504 59.3793 18.2254 59.7823 17.8643L60.2162 18.406ZM57.2096 14.3357C57.6229 14.3357 57.8864 14.3151 58 14.2738C58.124 14.2222 58.186 14.1087 58.186 13.9333C58.186 13.4794 58.0568 13.1079 57.7985 12.819C57.5402 12.5302 57.2148 12.3857 56.8222 12.3857C56.3779 12.3857 55.9801 12.5714 55.6288 12.9429C55.2879 13.304 55.0658 13.7683 54.9624 14.3357H57.2096Z" fill="black"/>
<path d="M65.9963 11.4881C66.6162 11.4881 67.2 11.5964 67.7476 11.8131C68.3055 12.0194 68.7911 12.3083 69.2044 12.6798C69.628 13.0512 69.9586 13.4948 70.1962 14.0107C70.4442 14.5163 70.5682 15.0734 70.5682 15.6821C70.5682 16.3115 70.4442 16.8893 70.1962 17.4155C69.9586 17.9417 69.628 18.3956 69.2044 18.7774C68.7911 19.1591 68.3055 19.4583 67.7476 19.675C67.2 19.8917 66.6162 20 65.9963 20C65.3867 20 64.8081 19.8968 64.2605 19.6905C63.713 19.4738 63.2325 19.1746 62.8192 18.7929C62.406 18.4111 62.0805 17.9571 61.8429 17.431C61.6052 16.8944 61.4864 16.3115 61.4864 15.6821C61.4864 15.0734 61.6052 14.5111 61.8429 13.9952C62.0805 13.4794 62.406 13.0357 62.8192 12.6643C63.2325 12.2929 63.713 12.004 64.2605 11.7976C64.8081 11.5913 65.3867 11.4881 65.9963 11.4881ZM65.9963 12.3857C65.6863 12.3857 65.4022 12.4683 65.1439 12.6333C64.8856 12.7881 64.6635 13.0099 64.4775 13.2988C64.3019 13.5877 64.1624 13.9385 64.0591 14.3512C63.9661 14.7536 63.9196 15.2024 63.9196 15.6976C63.9196 16.2135 63.9661 16.6778 64.0591 17.0905C64.1624 17.5032 64.3019 17.854 64.4775 18.1429C64.6635 18.4317 64.8805 18.6587 65.1284 18.8238C65.3867 18.9786 65.676 19.056 65.9963 19.056C66.3166 19.056 66.6059 18.9786 66.8642 18.8238C67.1328 18.6587 67.3601 18.4317 67.5461 18.1429C67.7321 17.8437 67.8767 17.4877 67.98 17.075C68.0834 16.6623 68.135 16.2032 68.135 15.6976C68.135 15.2024 68.0834 14.7536 67.98 14.3512C67.8767 13.9488 67.7321 13.6032 67.5461 13.3143C67.3601 13.0151 67.1328 12.7881 66.8642 12.6333C66.6059 12.4683 66.3166 12.3857 65.9963 12.3857Z" fill="black"/>
<path d="M75.2135 13.2524C75.8748 13.2524 76.4069 13.2317 76.8098 13.1905C77.2128 13.1492 77.5227 13.0667 77.7397 12.9429C77.967 12.8087 78.1271 12.6179 78.2201 12.3702C78.3131 12.1226 78.3854 11.7873 78.4371 11.3643H79.0105V15.8988H78.4371C78.3751 15.4861 78.2924 15.156 78.1891 14.9083C78.0858 14.6607 77.9205 14.475 77.6932 14.3512C77.4659 14.2171 77.1559 14.1345 76.7633 14.1036C76.381 14.0623 75.8645 14.0417 75.2135 14.0417V17.2298C75.2135 17.5599 75.2549 17.8385 75.3375 18.0655C75.4305 18.2925 75.5803 18.4782 75.787 18.6226C75.9936 18.7567 76.2674 18.8548 76.6084 18.9167C76.9493 18.9683 77.3677 18.994 77.8637 18.994C78.4526 18.994 78.9485 18.9528 79.3515 18.8702C79.7647 18.7877 80.1057 18.6433 80.3743 18.4369C80.643 18.2306 80.8599 17.9571 81.0252 17.6167C81.1905 17.2659 81.33 16.8274 81.4437 16.3012H82.0636L81.8156 19.8452H71.3081V19.2262C71.649 19.2159 71.928 19.1849 72.145 19.1333C72.3619 19.0817 72.5272 18.994 72.6409 18.8702C72.7545 18.7464 72.832 18.571 72.8734 18.344C72.9147 18.1171 72.9354 17.823 72.9354 17.4619V10.3119C72.9354 9.95079 72.9147 9.6619 72.8734 9.44524C72.8424 9.21825 72.7752 9.04286 72.6719 8.91905C72.5686 8.78492 72.4188 8.69722 72.2225 8.65595C72.0365 8.60436 71.7885 8.56825 71.4786 8.54762V7.92857H81.2732L81.3817 10.9619H80.7153C80.6533 10.5286 80.5551 10.1726 80.4208 9.89405C80.2865 9.60516 80.1005 9.37817 79.8629 9.2131C79.6253 9.0377 79.3153 8.91905 78.933 8.85714C78.5611 8.78492 78.1013 8.74881 77.5537 8.74881H75.8025C75.5338 8.74881 75.3685 8.78492 75.3065 8.85714C75.2445 8.91905 75.2135 9.07381 75.2135 9.32143V13.2524Z" fill="black"/>
<path d="M90.0554 18.8548H89.9934C89.2805 19.6183 88.3558 20 87.2193 20C86.6304 20 86.088 19.8968 85.592 19.6905C85.1064 19.4841 84.6828 19.1952 84.3212 18.8238C83.9699 18.4524 83.6961 18.0139 83.4998 17.5083C83.3035 16.9925 83.2054 16.425 83.2054 15.806C83.2054 15.1869 83.3035 14.6143 83.4998 14.0881C83.7065 13.5619 83.9802 13.1079 84.3212 12.7262C84.6725 12.3341 85.0858 12.0298 85.561 11.8131C86.0466 11.5964 86.5684 11.4881 87.1263 11.4881C87.6429 11.4881 88.0975 11.5655 88.4901 11.7202C88.8931 11.875 89.2444 12.1381 89.544 12.5095H89.606V11.194C89.606 10.5853 89.5956 10.0643 89.575 9.63095C89.5646 9.1873 89.544 8.89841 89.513 8.76429C89.4613 8.54762 89.3012 8.39286 89.0325 8.3C88.7743 8.19683 88.3713 8.14524 87.8237 8.14524V7.61905L91.7447 7V15.8524C91.7447 16.6262 91.7498 17.2246 91.7602 17.6476C91.7808 18.0603 91.8118 18.375 91.8532 18.5917C91.8738 18.7258 91.9048 18.8341 91.9461 18.9167C91.9875 18.9992 92.0495 19.0663 92.1321 19.1179C92.2148 19.1591 92.3233 19.1901 92.4576 19.2107C92.6022 19.221 92.783 19.2262 93 19.2262V19.8298L90.0554 20V18.8548ZM89.575 15.4036C89.575 15.0115 89.5336 14.6504 89.451 14.3202C89.3683 13.9798 89.2444 13.6806 89.079 13.4226C88.8931 13.1234 88.6554 12.8964 88.3661 12.7417C88.0768 12.5869 87.7669 12.5095 87.4363 12.5095C86.8267 12.5095 86.3618 12.7881 86.0415 13.3452C85.7212 13.9024 85.561 14.7123 85.561 15.775C85.561 16.848 85.7212 17.6734 86.0415 18.2512C86.3618 18.829 86.8215 19.1179 87.4208 19.1179C87.7617 19.1179 88.0872 19.0302 88.3971 18.8548C88.7071 18.6794 88.9602 18.4421 89.1565 18.1429C89.3012 17.9159 89.4045 17.6373 89.4665 17.3071C89.5388 16.9667 89.575 16.5333 89.575 16.0071V15.4036Z" fill="black"/>
</svg>
