<svg width="183" height="183" viewBox="0 0 183 183" fill="none" xmlns="http://www.w3.org/2000/svg">
<path d="M0 91.5C0 40.9659 40.9659 0 91.5 0V0C142.034 0 183 40.9659 183 91.5V91.5C183 142.034 142.034 183 91.5 183V183C40.9659 183 0 142.034 0 91.5V91.5Z" fill="#EDEDED"/>
<path d="M131.208 159.405C131.208 150.189 138.68 142.717 147.897 142.717V142.717C157.114 142.717 164.585 150.189 164.585 159.405V159.405C164.585 168.622 157.114 176.094 147.897 176.094V176.094C138.68 176.094 131.208 168.622 131.208 159.405V159.405Z" fill="#386C81"/>
<path fill-rule="evenodd" clip-rule="evenodd" d="M157 159C157 158.29 156.424 157.714 155.714 157.714H150.786C149.957 157.714 149.286 157.043 149.286 156.214V151.286C149.286 150.576 148.71 150 148 150C147.29 150 146.714 150.576 146.714 151.286V156.214C146.714 157.043 146.043 157.714 145.214 157.714H140.286C139.576 157.714 139 158.29 139 159C139 159.71 139.576 160.286 140.286 160.286H145.214C146.043 160.286 146.714 160.957 146.714 161.786V166.714C146.714 167.424 147.29 168 148 168C148.71 168 149.286 167.424 149.286 166.714V161.786C149.286 160.957 149.957 160.286 150.786 160.286H155.714C156.424 160.286 157 159.71 157 159Z" fill="white"/>
<path opacity="0.4" d="M74.8115 73.0847C74.8115 63.2322 82.7986 55.2451 92.6511 55.2451V55.2451C102.504 55.2451 110.491 63.2322 110.491 73.0847V73.0847C110.491 82.9373 102.504 90.9244 92.6511 90.9244V90.9244C82.7986 90.9244 74.8115 82.9373 74.8115 73.0847V73.0847Z" fill="#969696"/>
<path opacity="0.4" d="M93.8159 103.627C67.0294 102.61 57.8861 120.239 56.4105 130.243C56.3089 130.931 56.771 131.561 57.4593 131.71C81.851 137.005 115.067 134.019 130.067 131.653C130.801 131.538 131.313 130.881 131.189 130.157C129.617 120.985 120.416 104.638 93.8159 103.627Z" fill="#969696"/>
</svg>
